<?xml version="1.0" encoding="UTF-8"?>
<svg xmlns="http://www.w3.org/2000/svg" width="55" height="55" viewBox="0 0 55 55" fill="none">
  <g clip-path="url(#clip0_589_1361)">
    <path d="M40.7917 1.83325C33.4015 1.83325 29.1702 7.10317 27.5 9.77525C25.8298 7.10317 21.5985 1.83325 14.2083 1.83325C6.10867 1.83325 0 8.89159 0 18.2508C0 28.4973 7.95667 35.7105 19.9998 46.6289C22.1934 48.6181 24.4613 50.6742 26.8748 52.9209C27.2267 53.2481 27.7715 53.2481 28.1233 52.9209C30.5378 50.6742 32.8057 48.6181 34.9983 46.6289C44.1989 38.2873 50.8778 32.2217 53.6259 25.2825C54.91 24.5573 55.3748 22.936 54.67 21.6406C54.8878 20.5238 54.9984 19.3886 55 18.2508C55 8.89159 48.8913 1.83325 40.7917 1.83325V1.83325ZM53.1667 22.9166C53.1667 23.4228 52.7563 23.8333 52.25 23.8333H51.3333C50.8271 23.8333 50.4167 23.4228 50.4167 22.9166C50.4167 22.4103 50.8271 21.9999 51.3333 21.9999H52.25C52.7563 21.9999 53.1667 22.4103 53.1667 22.9166ZM33.7691 45.2704C31.7607 47.0909 29.6908 48.9683 27.5 50.9987C25.3092 48.9683 23.2393 47.0918 21.2309 45.2704C9.54983 34.6811 1.83333 27.6833 1.83333 18.2508C1.83333 9.93659 7.15 3.66659 14.2083 3.66659C22.7049 3.66659 26.6283 11.9588 26.6667 12.0431C26.8161 12.3688 27.1416 12.5777 27.5 12.5777C27.8584 12.5777 28.1839 12.3688 28.3333 12.0431C28.3718 11.9588 32.2951 3.66659 40.7917 3.66659C47.85 3.66659 53.1667 9.93659 53.1667 18.2508C53.1637 18.9337 53.1181 19.6158 53.0301 20.2931C52.7777 20.2126 52.5149 20.1699 52.25 20.1666H51.3333C49.8146 20.1666 48.5833 21.3978 48.5833 22.9166C48.5833 24.4354 49.8146 25.6666 51.3333 25.6666H51.4727C48.62 31.8028 42.2987 37.5374 33.7691 45.2704Z" fill="#074584"></path>
    <path d="M5.88963 14.8812C6.99513 10.296 10.2603 7.33333 14.2084 7.33333C14.7146 7.33333 15.125 6.92293 15.125 6.41667C15.125 5.91041 14.7146 5.5 14.2084 5.5C9.38304 5.5 5.41846 9.01358 4.10671 14.4522C3.98824 14.9445 4.29133 15.4397 4.78367 15.5581C5.27601 15.6766 5.77116 15.3735 5.88963 14.8812Z" fill="#074584"></path>
    <path d="M35.75 20.1666H29.3333C28.3846 20.1636 27.5021 20.6524 27.0013 21.4582L24.6327 25.2486L18.7614 16.7676C18.2669 16.0533 17.464 15.6146 16.5957 15.5844C15.7275 15.5543 14.896 15.9362 14.3532 16.6145L11.5115 20.1666H8.25C6.73122 20.1666 5.5 21.3978 5.5 22.9166C5.5 24.4354 6.73122 25.6666 8.25 25.6666H12.8333C13.669 25.6683 14.4596 25.2882 14.9802 24.6344L16.3405 22.934L22.4886 31.8147C23.0012 32.5581 23.847 33.0014 24.75 32.9999H24.816C25.742 32.98 26.5954 32.4938 27.0848 31.7074L30.8577 25.6666H35.75C37.2688 25.6666 38.5 24.4354 38.5 22.9166C38.5 21.3978 37.2688 20.1666 35.75 20.1666ZM35.75 23.8333H30.349C30.0329 23.8333 29.7392 23.9961 29.5717 24.2641L25.5273 30.7358C25.3637 30.9971 25.0796 31.1586 24.7713 31.1657C24.463 31.1727 24.1719 31.0242 23.9965 30.7706L17.1481 20.8779C16.9831 20.6398 16.7153 20.4936 16.4258 20.4838H16.3937C16.1155 20.4839 15.8525 20.6104 15.6787 20.8275L13.5493 23.4859C13.3759 23.7046 13.1124 23.8325 12.8333 23.8333H8.25C7.74374 23.8333 7.33333 23.4229 7.33333 22.9166C7.33333 22.4103 7.74374 21.9999 8.25 21.9999H11.9524C12.2307 21.9995 12.4938 21.8727 12.6674 21.6553L15.7841 17.7594C15.9653 17.5346 16.2419 17.4082 16.5305 17.4185C16.8191 17.4288 17.086 17.5745 17.2508 17.8117L23.9149 27.4367C24.0865 27.6949 24.3807 27.8444 24.6904 27.8309C24.9988 27.8239 25.283 27.6623 25.4467 27.4009L28.5533 22.4289C28.721 22.16 29.0164 21.9975 29.3333 21.9999H35.75C36.2563 21.9999 36.6667 22.4103 36.6667 22.9166C36.6667 23.4229 36.2563 23.8333 35.75 23.8333Z" fill="#FF7152"></path>
    <path d="M43.9999 20.1665H43.0833C41.5645 20.1665 40.3333 21.3977 40.3333 22.9165C40.3333 24.4353 41.5645 25.6665 43.0833 25.6665H43.9999C45.5187 25.6665 46.7499 24.4353 46.7499 22.9165C46.7499 21.3977 45.5187 20.1665 43.9999 20.1665ZM43.9999 23.8332H43.0833C42.577 23.8332 42.1666 23.4228 42.1666 22.9165C42.1666 22.4102 42.577 21.9998 43.0833 21.9998H43.9999C44.5062 21.9998 44.9166 22.4102 44.9166 22.9165C44.9166 23.4228 44.5062 23.8332 43.9999 23.8332Z" fill="#074584"></path>
  </g>
  <defs>
    <clipPath id="clip0_589_1361">
      <rect width="55" height="55" fill="white"></rect>
    </clipPath>
  </defs>
</svg>
