<?xml version="1.0" encoding="UTF-8"?>
<svg xmlns="http://www.w3.org/2000/svg" width="55" height="55" viewBox="0 0 55 55" fill="none">
  <g clip-path="url(#clip0_589_1343)">
    <path d="M32.5417 0C30.534 0.0340448 28.6623 1.02097 27.5 2.65833C26.3377 1.02097 24.466 0.0340448 22.4583 0C19.0612 0 16.5 2.98558 16.5 6.94467C16.5 11.1705 19.5873 14.0397 24.2605 18.3838C25.08 19.1455 25.9518 19.9558 26.8675 20.8294C27.2216 21.167 27.7784 21.167 28.1325 20.8294C29.0492 19.9558 29.92 19.1455 30.7395 18.3838C35.4127 14.0397 38.5 11.1705 38.5 6.94467C38.5 2.98558 35.9388 0 32.5417 0V0ZM29.491 17.0408C28.8579 17.6306 28.1942 18.2511 27.5 18.9026C26.8076 18.2493 26.1439 17.6287 25.509 17.0408C21.0338 12.8819 18.3333 10.3712 18.3333 6.94467C18.3333 4.03333 20.1071 1.83333 22.4583 1.83333C25.3 1.83333 26.6099 4.63925 26.664 4.75842C26.8118 5.088 27.1393 5.3001 27.5005 5.3001C27.8616 5.3001 28.1892 5.088 28.3369 4.75842C28.3498 4.72633 29.6762 1.83333 32.5417 1.83333C34.8929 1.83333 36.6667 4.03333 36.6667 6.94467C36.6667 10.3712 33.9662 12.8819 29.491 17.0408Z" fill="#FF7152"></path>
    <path d="M31.1218 27.5H12.8801C11.8425 27.5 11.001 28.3406 11 29.3782V42.1199C11 43.1575 11.8406 43.999 12.8783 44H31.1199C32.1575 44 32.999 43.1594 33 42.1218V29.3801C33 28.3425 32.1594 27.501 31.1218 27.5ZM31.1218 42.1667H12.8801C12.8679 42.1672 12.856 42.1627 12.8471 42.1542C12.8383 42.1457 12.8333 42.134 12.8333 42.1218L12.8783 29.3333L31.1667 29.3782L31.1218 42.1667Z" fill="#074584"></path>
    <path d="M13.75 45.8333C12.2312 45.8333 11 47.0645 11 48.5833C11 50.102 12.2312 51.3333 13.75 51.3333C15.2688 51.3333 16.5 50.102 16.5 48.5833C16.5 47.0645 15.2688 45.8333 13.75 45.8333ZM13.75 49.4999C13.2437 49.4999 12.8333 49.0895 12.8333 48.5833C12.8333 48.077 13.2437 47.6666 13.75 47.6666C14.2563 47.6666 14.6667 48.077 14.6667 48.5833C14.6667 49.0895 14.2563 49.4999 13.75 49.4999Z" fill="#074584"></path>
    <path d="M21.0835 45.8333C19.5647 45.8333 18.3335 47.0645 18.3335 48.5833C18.3335 50.102 19.5647 51.3333 21.0835 51.3333C22.6023 51.3333 23.8335 50.102 23.8335 48.5833C23.8335 47.0645 22.6023 45.8333 21.0835 45.8333ZM21.0835 49.4999C20.5772 49.4999 20.1668 49.0895 20.1668 48.5833C20.1668 48.077 20.5772 47.6666 21.0835 47.6666C21.5898 47.6666 22.0002 48.077 22.0002 48.5833C22.0002 49.0895 21.5898 49.4999 21.0835 49.4999Z" fill="#074584"></path>
    <path d="M15.5834 36.6668H18.3334C18.6398 36.6668 18.926 36.5137 19.0961 36.2588L20.1044 34.7427L23.0378 39.8714C23.2009 40.157 23.5045 40.3333 23.8334 40.3334H23.8591C24.1972 40.324 24.5028 40.1292 24.6538 39.8265L26.2333 36.6668H28.4168C28.923 36.6668 29.3334 36.2563 29.3334 35.7501C29.3334 35.2438 28.923 34.8334 28.4168 34.8334H25.6668C25.3193 34.8333 25.0016 35.0295 24.8463 35.3403L23.7793 37.4743L20.9624 32.5418C20.804 32.267 20.5149 32.0937 20.1979 32.0834C19.8797 32.0692 19.5778 32.2244 19.4041 32.4913L17.843 34.8334H15.5834C15.0772 34.8334 14.6667 35.2438 14.6667 35.7501C14.6667 36.2563 15.0772 36.6668 15.5834 36.6668Z" fill="#074584"></path>
    <path d="M38.4999 29.3333H40.3333C40.8395 29.3333 41.2499 28.9229 41.2499 28.4167C41.2499 27.9104 40.8395 27.5 40.3333 27.5H38.4999C37.9937 27.5 37.5833 27.9104 37.5833 28.4167C37.5833 28.9229 37.9937 29.3333 38.4999 29.3333Z" fill="#074584"></path>
    <path d="M37.5832 33.0001H41.2498C41.7561 33.0001 42.1665 32.5897 42.1665 32.0834C42.1665 31.5772 41.7561 31.1667 41.2498 31.1667H37.5832C37.0769 31.1667 36.6665 31.5772 36.6665 32.0834C36.6665 32.5897 37.0769 33.0001 37.5832 33.0001Z" fill="#074584"></path>
    <path d="M40.3333 42.1667H38.4999C37.9937 42.1667 37.5833 42.5772 37.5833 43.0834C37.5833 43.5897 37.9937 44.0001 38.4999 44.0001H40.3333C40.8395 44.0001 41.2499 43.5897 41.2499 43.0834C41.2499 42.5772 40.8395 42.1667 40.3333 42.1667Z" fill="#074584"></path>
    <path d="M41.2498 38.5H37.5832C37.0769 38.5 36.6665 38.9104 36.6665 39.4167C36.6665 39.9229 37.0769 40.3333 37.5832 40.3333H41.2498C41.7561 40.3333 42.1665 39.9229 42.1665 39.4167C42.1665 38.9104 41.7561 38.5 41.2498 38.5Z" fill="#074584"></path>
    <path d="M43.0835 34.8335H35.7502C35.2439 34.8335 34.8335 35.2439 34.8335 35.7502C34.8335 36.2564 35.2439 36.6668 35.7502 36.6668H43.0835C43.5898 36.6668 44.0002 36.2564 44.0002 35.7502C44.0002 35.2439 43.5898 34.8335 43.0835 34.8335Z" fill="#074584"></path>
    <path d="M51.3333 10.0833H50.4167V4.58333C50.4136 2.05328 48.3634 0.00303061 45.8333 0H42.1667C41.1541 0 40.3333 0.820811 40.3333 1.83333V20.1667C40.3333 21.1792 41.1541 22 42.1667 22H45.8333C48.3634 21.997 50.4136 19.9467 50.4167 17.4167V11.9167H51.3333C52.3459 11.9167 53.1667 12.7375 53.1667 13.75V32.0833C53.1667 33.0959 52.3459 33.9167 51.3333 33.9167V33C51.3333 31.4812 50.1021 30.25 48.5833 30.25H47.6667V28.4167C47.6636 25.8866 45.6134 23.8364 43.0833 23.8333H11.9167C9.38662 23.8364 7.33636 25.8866 7.33333 28.4167V30.25H6.41667C4.89788 30.25 3.66667 31.4812 3.66667 33V33.9167C2.65414 33.9167 1.83333 33.0959 1.83333 32.0833V13.75C1.83333 12.7375 2.65414 11.9167 3.66667 11.9167H4.58333V17.4167C4.58636 19.9467 6.63662 21.997 9.16667 22H12.8333C13.8459 22 14.6667 21.1792 14.6667 20.1667V1.83333C14.6667 0.820811 13.8459 0 12.8333 0H9.16667C6.63662 0.00303061 4.58636 2.05328 4.58333 4.58333V10.0833H3.66667C1.64162 10.0833 0 11.725 0 13.75V32.0833C0 34.1084 1.64162 35.75 3.66667 35.75V36.6667C3.66667 38.1855 4.89788 39.4167 6.41667 39.4167H7.33333V50.4167C7.33636 52.9467 9.38662 54.997 11.9167 55H43.0833C45.6134 54.997 47.6636 52.9467 47.6667 50.4167V39.4167H48.5833C50.1021 39.4167 51.3333 38.1855 51.3333 36.6667V35.75C53.3584 35.75 55 34.1084 55 32.0833V13.75C55 11.725 53.3584 10.0833 51.3333 10.0833ZM42.1667 1.83333H44V20.1667H42.1667V1.83333ZM48.5833 17.4167C48.5833 18.9354 47.3521 20.1667 45.8333 20.1667V1.83333C47.3521 1.83333 48.5833 3.06455 48.5833 4.58333V17.4167ZM12.8333 20.1667H11V1.83333H12.8333V20.1667ZM6.41667 4.58333C6.41667 3.06455 7.64788 1.83333 9.16667 1.83333V20.1667C7.64788 20.1667 6.41667 18.9354 6.41667 17.4167V4.58333ZM6.41667 37.5833C5.91041 37.5833 5.5 37.1729 5.5 36.6667V33C5.5 32.4937 5.91041 32.0833 6.41667 32.0833H7.33333V37.5833H6.41667ZM45.8333 50.4167C45.8333 51.9355 44.6021 53.1667 43.0833 53.1667H11.9167C10.3979 53.1667 9.16667 51.9355 9.16667 50.4167V28.4167C9.16667 26.8979 10.3979 25.6667 11.9167 25.6667H43.0833C44.6021 25.6667 45.8333 26.8979 45.8333 28.4167V50.4167ZM49.5 36.6667C49.5 37.1729 49.0896 37.5833 48.5833 37.5833H47.6667V32.0833H48.5833C49.0896 32.0833 49.5 32.4937 49.5 33V36.6667Z" fill="#074584"></path>
  </g>
  <defs>
    <clipPath id="clip0_589_1343">
      <rect width="55" height="55" fill="white"></rect>
    </clipPath>
  </defs>
</svg>
