<?xml version="1.0" encoding="UTF-8"?>
<svg xmlns="http://www.w3.org/2000/svg" width="55" height="55" viewBox="0 0 55 55" fill="none">
  <g clip-path="url(#clip0_589_1318)">
    <path d="M40.7917 7.33333C37.1473 7.32526 33.6213 8.62649 30.8559 11L33.1476 3.55667C33.4035 2.72257 33.2485 1.81652 32.7297 1.11499C32.211 0.413469 31.3901 -0.000281768 30.5177 1.43969e-07H23.8333C22.3146 1.43969e-07 21.0833 1.23122 21.0833 2.75V8.97508C18.9556 7.88687 16.5982 7.32393 14.2083 7.33333C6.10867 7.33333 0 13.8948 0 22.5958C0 32.1292 7.964 38.8208 20.02 48.9454C22.1833 50.7613 24.4842 52.6937 26.9014 54.7773C27.2454 55.0738 27.7546 55.0738 28.0986 54.7773C30.5158 52.6937 32.8167 50.7613 34.98 48.95C47.036 38.8208 55 32.1328 55 22.5958C55 13.8948 48.8913 7.33333 40.7917 7.33333ZM22.9167 2.75C22.9167 2.24374 23.3271 1.83333 23.8333 1.83333H30.5177C30.8086 1.83328 31.0823 1.97132 31.2551 2.2053C31.428 2.43929 31.4795 2.74144 31.394 3.0195L28.7109 11.7388C28.4256 12.6656 28.9113 13.6542 29.8192 13.9948L34.5858 15.7832C34.8167 15.8698 35.0029 16.0458 35.1025 16.2714C35.202 16.497 35.2064 16.7532 35.1147 16.9822L28.4772 33.5738C28.3628 33.8573 28.3973 34.1792 28.5692 34.432C28.7411 34.6848 29.0276 34.8353 29.3333 34.8333H31.2987L31.3564 34.9589L27.5578 39.3901H27.4423L23.6326 34.8773C23.6423 34.8483 23.6709 34.83 23.7013 34.8333H25.6667C26.1115 34.8335 26.4922 34.5142 26.5696 34.0762L29.095 19.7633C29.295 18.6205 28.7577 17.4748 27.7512 16.8978L23.375 14.399C23.0905 14.2348 22.9157 13.9309 22.9167 13.6024V2.75ZM33.8012 47.5411C31.8083 49.2122 29.7055 50.9795 27.5 52.8743C25.2945 50.9795 23.1917 49.2122 21.1988 47.5411C9.53792 37.7483 1.83333 31.2785 1.83333 22.5958C1.83333 14.9417 7.15 9.16667 14.2083 9.16667C16.6313 9.15665 19.0101 9.81479 21.0833 11.0688V13.6024C21.0861 14.5875 21.6145 15.4962 22.4693 15.9858L26.8418 18.4846C27.1779 18.6764 27.3573 19.0587 27.2901 19.4398L24.8976 33H23.7059C22.9605 33.0004 22.2835 33.4345 21.9721 34.1117C21.6607 34.7889 21.7718 35.5854 22.2567 36.1515L26.0544 40.5827C26.4172 41.0062 26.9469 41.25 27.5046 41.25C28.0622 41.25 28.592 41.0062 28.9548 40.5827L32.7525 36.1515C33.2379 35.5848 33.3487 34.7872 33.0361 34.1096C32.7235 33.432 32.0449 32.9986 31.2987 33H30.6873L36.8216 17.6632C37.0963 16.9766 37.0829 16.2082 36.7843 15.5316C36.4857 14.8549 35.9272 14.3271 35.2348 14.0672L31.6598 12.7279C34.15 10.4385 37.409 9.16757 40.7917 9.16667C47.85 9.16667 53.1667 14.9417 53.1667 22.5958C53.1667 31.2785 45.4667 37.7483 33.8012 47.5411Z" fill="#1D4D9F"></path>
    <path d="M27.5002 43.0833C26.9939 43.0833 26.5835 43.4937 26.5835 43.9999V45.8333C26.5835 46.3395 26.9939 46.7499 27.5002 46.7499C28.0064 46.7499 28.4168 46.3395 28.4168 45.8333V43.9999C28.4168 43.4937 28.0064 43.0833 27.5002 43.0833Z" fill="#FF7152"></path>
    <path d="M21.2667 41.6167L20.1667 43.0834C19.9702 43.3454 19.9284 43.6923 20.0571 43.9935C20.1857 44.2946 20.4653 44.5043 20.7904 44.5435C21.1156 44.5826 21.4369 44.4454 21.6334 44.1834L22.7334 42.7167C23.0372 42.3117 22.9551 41.7371 22.5501 41.4334C22.1451 41.1296 21.5705 41.2117 21.2667 41.6167Z" fill="#FF7152"></path>
    <path d="M18.4423 36.5199L16.6823 37.0333C16.2444 37.161 15.967 37.5913 16.0315 38.0429C16.096 38.4945 16.4828 38.8299 16.939 38.8299C17.0261 38.8298 17.1128 38.8175 17.1965 38.7933L18.9565 38.2799C19.4426 38.1379 19.7214 37.6288 19.5794 37.1428C19.4374 36.6568 18.9283 36.3779 18.4423 36.5199Z" fill="#FF7152"></path>
    <path d="M19.2418 30.7478L17.5258 30.1061C17.216 29.9768 16.8603 30.0272 16.5986 30.2375C16.3369 30.4478 16.2111 30.7842 16.2707 31.1146C16.3302 31.445 16.5655 31.7164 16.8841 31.8221L18.6001 32.4638C19.0708 32.6282 19.5865 32.3863 19.7611 31.9193C19.9356 31.4523 19.7049 30.9314 19.2418 30.7469V30.7478Z" fill="#FF7152"></path>
    <path d="M21.7975 27.5917C21.9735 27.868 22.2835 28.0293 22.6108 28.015C22.938 28.0007 23.2328 27.8129 23.384 27.5223C23.5352 27.2317 23.5199 26.8826 23.3439 26.6063L22.3585 25.0608C22.1818 24.7839 21.8708 24.6223 21.5427 24.6369C21.2145 24.6515 20.9191 24.84 20.7676 25.1314C20.6162 25.4229 20.6317 25.773 20.8084 26.0499L21.7975 27.5917Z" fill="#FF7152"></path>
    <path d="M33.7335 41.6167C33.537 41.3547 33.2157 41.2174 32.8905 41.2566C32.5654 41.2958 32.2858 41.5054 32.1572 41.8066C32.0285 42.1078 32.0703 42.4547 32.2668 42.7167L33.3668 44.1834C33.6706 44.5884 34.2452 44.6704 34.6502 44.3667C35.0552 44.0629 35.1373 43.4884 34.8335 43.0833L33.7335 41.6167Z" fill="#FF7152"></path>
    <path d="M38.3168 37.0335L36.5568 36.5202C36.2424 36.4284 35.9028 36.5112 35.6661 36.7375C35.4293 36.9639 35.3313 37.2993 35.409 37.6175C35.4866 37.9357 35.7281 38.1883 36.0425 38.2802L37.8025 38.7935C37.8862 38.8178 37.9729 38.8301 38.0601 38.8302C38.5163 38.8302 38.903 38.4948 38.9675 38.0432C39.0321 37.5916 38.7547 37.1613 38.3168 37.0335Z" fill="#FF7152"></path>
    <path d="M36.4036 32.4646L38.1196 31.8229C38.5744 31.6331 38.7978 31.1176 38.6252 30.6559C38.4525 30.1942 37.9457 29.9517 37.4779 30.1069L35.7619 30.7486C35.4482 30.8581 35.2184 31.1288 35.1612 31.456C35.104 31.7833 35.2283 32.1159 35.4861 32.3254C35.7439 32.5349 36.0949 32.5885 36.4036 32.4655V32.4646Z" fill="#FF7152"></path>
  </g>
  <defs>
    <clipPath id="clip0_589_1318">
      <rect width="55" height="55" fill="white"></rect>
    </clipPath>
  </defs>
</svg>
