<?xml version="1.0" encoding="UTF-8"?>
<svg xmlns="http://www.w3.org/2000/svg" width="84" height="59" viewBox="0 0 84 59" fill="none">
  <path d="M53.4061 45.9158C53.4002 45.8173 53.3886 45.7166 53.3808 45.6173C53.366 45.4262 53.3522 45.2356 53.3304 45.042C53.3172 44.9248 53.2982 44.8055 53.2825 44.6875C53.2588 44.5091 53.2365 44.3313 53.2073 44.1511C53.1868 44.0252 53.1612 43.8978 53.138 43.7711C53.1063 43.5969 53.0758 43.4231 53.0393 43.2477C53.0116 43.1152 52.9793 42.9816 52.9489 42.8484C52.91 42.6775 52.872 42.5069 52.8287 42.335C52.7941 42.1976 52.7554 42.0598 52.7182 41.922C52.6723 41.7527 52.6272 41.5834 52.5775 41.4135C52.5367 41.274 52.4922 41.1343 52.4489 40.9945C52.3964 40.8256 52.3442 40.6569 52.2882 40.4878C52.2416 40.3476 52.1923 40.2075 52.1433 40.0671C52.0844 39.8983 52.0255 39.7295 51.9632 39.5608C51.911 39.4194 51.8565 39.2783 51.802 39.1371C51.7373 38.9693 51.6723 38.8018 51.6044 38.6344C51.5476 38.4939 51.4887 38.3541 51.4297 38.2139C51.3593 38.0467 51.2883 37.8799 51.215 37.7133C51.1533 37.5733 51.0905 37.4335 51.0264 37.2943C50.9508 37.1286 50.874 36.9634 50.7962 36.7987C50.7302 36.6598 50.6632 36.5214 50.5954 36.3836C50.5153 36.2206 50.4342 36.0584 50.3521 35.8967C50.282 35.7591 50.211 35.622 50.1393 35.4855C50.0544 35.3239 49.9684 35.1631 49.8812 35.0032C49.8085 34.8694 49.7351 34.7363 49.661 34.6038C49.5718 34.4445 49.4816 34.2864 49.3904 34.1294C49.3141 33.9977 49.2373 33.8666 49.16 33.736C49.068 33.5815 48.9748 33.4287 48.8811 33.2762C48.8015 33.1468 48.7219 33.0178 48.6411 32.89C48.5462 32.7396 48.45 32.5915 48.3535 32.4436C48.2713 32.3174 48.1892 32.1914 48.1059 32.0671C48.0084 31.9216 47.9099 31.7789 47.8112 31.636C47.7269 31.5141 47.6429 31.3921 47.5578 31.2722C47.4573 31.1307 47.3558 30.9924 47.2543 30.8539C47.169 30.7377 47.0842 30.6209 46.9983 30.5068C46.8945 30.369 46.7898 30.2349 46.685 30.1004C46.5998 29.9908 46.5149 29.8804 46.4292 29.7732C46.3235 29.641 46.2171 29.5131 46.1106 29.3846C46.0247 29.2807 45.9392 29.1754 45.853 29.0741C45.7455 28.9479 45.6377 28.8269 45.5298 28.7047C45.4438 28.6072 45.3579 28.5076 45.2716 28.4127C45.1613 28.2914 45.0508 28.1761 44.9404 28.0593C44.8567 27.9709 44.7731 27.8796 44.6894 27.7938C44.5735 27.6749 44.4578 27.5633 44.3419 27.4497C44.2633 27.3728 44.1847 27.2922 44.1063 27.2178C43.9736 27.092 43.8416 26.9745 43.7095 26.856C43.6486 26.8013 43.5872 26.7425 43.5263 26.6895C43.3349 26.5227 43.1443 26.3644 42.9546 26.2143C42.8864 26.1605 42.8194 26.1136 42.7516 26.0621C42.63 25.9695 42.5081 25.8754 42.3877 25.7903C42.3033 25.7306 42.2203 25.6791 42.1364 25.6231C42.0339 25.5548 41.931 25.4837 41.8296 25.4213C41.7426 25.3676 41.6576 25.3224 41.5716 25.2731C41.4751 25.2179 41.378 25.1601 41.2826 25.1105C41.1963 25.0656 41.1121 25.0288 41.0269 24.9887C40.951 24.9529 40.8737 24.9119 40.7987 24.88C41.5386 24.7488 42.22 24.6546 42.7473 24.5952C44.0398 24.4752 45.1048 23.5301 45.3776 22.261C45.4038 22.1204 45.417 21.9777 45.4173 21.8348C45.3457 20.39 44.1904 19.2347 42.7456 19.1631C40.7313 19.2331 38.7359 19.5785 36.8152 20.1897L36.7983 20.1694C36.5376 19.8607 36.249 19.5349 35.9471 19.2013C35.8692 19.1151 35.7901 19.0288 35.7092 18.9411C35.6048 18.8277 35.5031 18.7161 35.3937 18.6C35.6621 18.4101 35.9009 18.2535 36.0801 18.1456C36.1423 18.1081 36.1997 18.0631 36.2509 18.0116C36.9545 17.1487 37.0798 15.9507 36.57 14.9609C36.1621 13.7884 35.0804 12.9834 33.8402 12.9294C32.6311 12.9833 31.4329 13.1821 30.2713 13.5219C29.9697 11.0375 28.2237 8.96834 25.8254 8.25327V7.5863C25.8259 6.53248 25.2065 5.57696 24.2444 5.1471C23.2823 4.71714 22.1573 4.8932 21.3727 5.59658C20.6362 4.9365 19.5953 4.73749 18.6672 5.07937C17.7393 5.42126 17.0762 6.24799 16.9438 7.22804C16.916 7.1506 16.8873 7.07494 16.8586 7.00105C16.5539 6.22065 15.9432 5.59877 15.1684 5.28006C14.4236 4.97439 13.5847 4.99526 12.856 5.33746C12.1693 5.65982 11.641 6.24455 11.3897 6.96025C11.1179 7.72949 11.162 8.57501 11.5123 9.31179C11.7154 9.73747 11.8925 10.1752 12.0425 10.6223C10.9482 11.5251 10.0143 12.6062 9.28009 13.8201H6.87209C6.17663 13.8147 5.50237 14.0591 4.97191 14.5089C4.1005 15.2114 3.58444 16.2632 3.56221 17.3822C3.58423 18.5062 4.10468 19.5622 4.98266 20.2642L1.81033 21.4366C0.55248 21.9021 -0.191291 23.2017 0.0443529 24.522C0.279997 25.8424 1.42754 26.8044 2.76877 26.8059C2.93553 26.8058 3.10199 26.791 3.26625 26.7616L3.26667 26.7607L3.73796 26.675C3.46547 26.9269 3.19299 27.1788 2.93272 27.4391C0.657884 29.7141 0 31.2534 0 34.3025C0 34.4555 0.00323515 34.6143 0.00949674 34.7774C0.0120014 34.8441 0.0172194 34.9139 0.0208719 34.982C0.0261943 35.0795 0.0310992 35.1763 0.0389262 35.2769C0.0457096 35.3649 0.055415 35.4555 0.0642856 35.5456C0.07253 35.6291 0.080357 35.712 0.0905842 35.7974C0.103003 35.9021 0.118344 36.0091 0.133789 36.1164C0.144434 36.1898 0.15487 36.2629 0.166871 36.3375C0.185969 36.4558 0.207885 36.5758 0.230948 36.6968C0.24368 36.7634 0.256516 36.8301 0.2705 36.8975C0.297425 37.0278 0.32675 37.1595 0.358684 37.2926C0.373086 37.353 0.388218 37.4134 0.403663 37.4743C0.439563 37.6159 0.478176 37.7589 0.519711 37.9032C0.535052 37.9565 0.55175 38.0103 0.567926 38.064C0.61447 38.2181 0.663519 38.373 0.71716 38.53C0.731875 38.5731 0.748155 38.6167 0.763496 38.6601C0.822981 38.8286 0.885075 38.9978 0.953222 39.1693C0.96418 39.1969 0.976598 39.225 0.987869 39.2526C1.55757 40.6385 2.3242 41.935 3.26406 43.102L3.27679 43.1185C3.36894 43.2341 3.46495 43.3499 3.56201 43.4658V53.0038C3.56201 55.9548 5.95424 58.347 8.90522 58.347C11.8562 58.347 14.2484 55.9548 14.2484 53.0038V51.8615C19.3336 54.8751 25.4819 57.4564 31.1687 57.4564C32.6345 57.4564 34.4776 57.6178 36.4342 57.7966L36.4367 57.7973L36.832 57.8329C37.4451 57.8892 38.0808 57.9469 38.7275 58.0027C38.7691 58.0063 38.8077 58.01 38.8496 58.0137C39.2381 58.047 39.6415 58.0755 40.0392 58.1061C40.3567 58.1307 40.6671 58.158 40.9894 58.1799C41.4062 58.2083 41.8325 58.2269 42.2555 58.2493C42.5668 58.2658 42.8736 58.2878 43.1871 58.3004C43.9269 58.3298 44.6721 58.3469 45.4173 58.3469C52.4798 58.3469 53.4321 52.4949 53.4321 46.77C53.4322 46.4889 53.4235 46.2041 53.4061 45.9158ZM42.7457 20.9445C43.2087 21.008 43.5727 21.372 43.6362 21.835C43.6359 21.8709 43.6325 21.9067 43.6258 21.9419C43.4919 22.4364 43.0586 22.7911 42.5475 22.8246C41.4073 22.9518 40.2751 23.1414 39.1558 23.3925C39.1428 23.3711 39.1234 23.343 39.1101 23.321C39.0386 23.2041 38.9625 23.0828 38.8805 22.9552C38.8474 22.9036 38.8135 22.8521 38.7786 22.7988C38.6365 22.5821 38.4835 22.3555 38.3099 22.1111L38.287 22.0779C38.2142 21.9758 38.1316 21.8659 38.053 21.7591C38.0372 21.7378 38.0267 21.7208 38.0107 21.6993C39.551 21.2486 41.1419 20.9949 42.7457 20.9445ZM35.5619 21.4703C35.594 21.5088 35.6292 21.5494 35.6607 21.5874C35.7709 21.7209 35.865 21.843 35.9667 21.9706C36.1404 22.1881 36.3042 22.3982 36.4542 22.5974C36.5368 22.7072 36.6176 22.8156 36.6935 22.92C36.8091 23.0788 36.9145 23.2285 37.0149 23.3737C37.0902 23.4828 37.17 23.5959 37.2375 23.6978C37.3059 23.8007 37.362 23.891 37.4224 23.9857C37.4757 24.0696 37.5325 24.1569 37.5803 24.2348C37.6036 24.2728 37.6276 24.3117 37.6498 24.3484C37.7394 24.4975 37.8219 24.6385 37.8916 24.7636L37.9076 24.7932C37.9719 24.9094 38.0268 25.0133 38.075 25.1075L38.0924 25.1417C38.0552 25.1689 38.0239 25.1936 37.9823 25.2225C37.9581 25.2393 37.9346 25.2558 37.909 25.273C37.7886 25.3542 37.6543 25.4392 37.5037 25.5249C37.487 25.5344 37.4674 25.5437 37.4504 25.5532C37.3166 25.6276 37.1694 25.7008 37.0146 25.7716C36.97 25.7921 36.9251 25.8123 36.8787 25.8322C36.6888 25.9146 36.4946 25.9868 36.2968 26.0484C36.2811 26.0532 36.2636 26.0565 36.2479 26.0611C36.0494 26.1188 35.8478 26.1655 35.6441 26.2006C35.585 26.2112 35.5252 26.2208 35.4648 26.2294C35.2218 26.2663 34.9767 26.2857 34.731 26.2876C34.5453 26.2858 34.3599 26.2708 34.1762 26.2426C34.1149 26.2337 34.0481 26.2173 33.9846 26.2057C33.8459 26.1801 33.7056 26.1519 33.5574 26.113C33.4793 26.0925 33.3972 26.0663 33.3165 26.0422C33.1725 25.9991 33.0261 25.9524 32.8738 25.8976C32.7873 25.8664 32.6986 25.8322 32.6095 25.7973C32.5348 25.768 32.4561 25.733 32.3796 25.7011L32.374 25.6718C32.1771 24.7016 32.0718 23.7152 32.0593 22.7255C32.162 21.9094 32.541 21.1532 33.1332 20.5823C33.1709 20.5393 33.2098 20.4968 33.2488 20.4542C33.3156 20.3807 33.3858 20.3068 33.4578 20.2326C33.5181 20.1709 33.5783 20.1093 33.64 20.0488C33.7003 19.9899 33.7641 19.9305 33.8275 19.8712C33.8839 19.8184 33.9398 19.7649 33.9969 19.7134C34.2792 20.011 34.5386 20.2957 34.7871 20.5738C34.8532 20.6479 34.9176 20.7207 34.9814 20.7935C35.1859 21.0261 35.3805 21.2525 35.5619 21.4703ZM29.3877 15.6012C29.4835 15.6011 29.5787 15.5856 29.6695 15.5551C31.0198 15.1031 32.4206 14.8195 33.8404 14.7106C34.3523 14.7842 34.7751 15.1478 34.9245 15.6429C35.0856 15.9727 35.1208 16.3499 35.0236 16.7039C33.9591 17.3723 32.9778 18.1649 32.1003 19.0652L32.09 19.076C31.9152 19.2607 31.7446 19.4511 31.5831 19.65C31.5401 19.7025 31.502 19.7546 31.4612 19.8069C31.3595 19.9384 31.2605 20.0714 31.168 20.2081C31.0965 20.313 31.0331 20.4173 30.9703 20.5217C30.9268 20.5941 30.8846 20.6668 30.8444 20.7403C30.783 20.8525 30.7252 20.9644 30.6739 21.0758C30.6407 21.1479 30.6125 21.2208 30.583 21.2936C30.5392 21.4027 30.4942 21.512 30.4602 21.6203C30.431 21.7123 30.4119 21.8058 30.3893 21.8989C30.3681 21.9886 30.3407 22.0789 30.3263 22.1679C30.2951 22.3521 30.279 22.5386 30.2783 22.7255C30.2783 23.007 30.2886 23.2874 30.3052 23.5651C30.31 23.6465 30.3189 23.731 30.3251 23.8134C30.341 24.0243 30.3591 24.2326 30.3821 24.4377C30.3923 24.5271 30.4041 24.6176 30.4156 24.7082C30.4464 24.9492 30.4804 25.1831 30.5178 25.4101C30.5268 25.4646 30.5346 25.5183 30.5442 25.5731C30.6019 25.9069 30.6636 26.2186 30.7269 26.5085L30.7313 26.5312L30.7326 26.5337L30.734 26.54L30.7353 26.5459C30.8498 27.0656 30.9653 27.5098 31.0544 27.8226C30.5183 28.2027 28.9472 28.9593 24.9351 28.9593C24.4791 28.9582 24.0236 28.9336 23.5703 28.8853C23.5072 28.8787 23.442 28.8744 23.38 28.8669C22.9911 28.8204 22.6052 28.7506 22.2246 28.658C22.1559 28.6413 22.0881 28.624 22.0208 28.6059C21.6793 28.5159 21.3448 28.401 21.0199 28.2623C20.9717 28.2413 20.927 28.2175 20.88 28.1956C20.5733 28.0573 20.2802 27.8908 20.0044 27.698C20.2415 26.9784 20.3883 26.2323 20.4415 25.4766L20.4421 25.4745L20.4428 25.4632C20.4668 25.1537 20.4825 24.8369 20.4825 24.5066C20.4825 24.3413 20.4756 24.1565 20.466 23.9616L20.4655 23.943L20.4416 23.5125L20.4411 23.5109L20.4394 23.4795C20.3385 21.7845 20.2006 19.4634 21.7495 17.8197C23.1361 16.3474 25.706 15.6012 29.3877 15.6012ZM8.96596 20.6314C8.97942 20.4721 8.98882 20.3231 9.0076 20.1496C9.08921 19.4309 9.2253 18.7195 9.41471 18.0214C9.4671 17.8267 9.51082 17.6274 9.57135 17.4372C9.62885 17.2546 9.70138 17.0811 9.7663 16.9029C9.86492 16.6346 9.96343 16.366 10.0785 16.1085C10.1427 15.9641 10.2162 15.8258 10.2856 15.6848C11.0501 14.0993 12.1866 12.7221 13.5982 11.6703C13.8947 11.4529 14.0273 11.0758 13.9321 10.7206C13.7273 9.9728 13.4556 9.24479 13.1203 8.54558C12.9731 8.2374 12.9537 7.88352 13.0664 7.56115C13.1635 7.28366 13.3707 7.05845 13.639 6.93844C13.775 6.87645 13.9226 6.84441 14.0721 6.84451C14.2178 6.84514 14.3619 6.87405 14.4965 6.92978C14.8191 7.06325 15.0731 7.3228 15.1996 7.64808C15.4066 8.1991 15.5736 8.76442 15.6991 9.33955C15.7508 9.59617 15.9101 9.81835 16.1364 9.94974C16.3629 10.0811 16.6347 10.1091 16.8831 10.0267C17.2449 9.91269 17.6201 9.81616 18.005 9.73006C18.4119 9.63927 18.7013 9.27818 18.7012 8.86127V7.58641C18.7012 7.09456 19.0998 6.69591 19.5917 6.69591C20.0835 6.69591 20.4822 7.09456 20.4822 7.58641C20.4822 8.07826 20.8808 8.47691 21.3727 8.47691C21.8645 8.47691 22.2632 8.07815 22.2632 7.58641C22.2632 7.09467 22.6618 6.69591 23.1537 6.69591C23.6455 6.69591 24.0442 7.09456 24.0442 7.58641V8.90572C24.0443 9.30594 24.3112 9.65701 24.6968 9.76408C27.775 10.6163 28.4002 12.7044 28.5051 13.8341C28.3734 13.8382 28.2538 13.8508 28.1248 13.857C27.897 13.8677 27.6718 13.8805 27.4526 13.8973C27.2083 13.9159 26.9714 13.9399 26.7375 13.966C26.5331 13.9889 26.3295 14.0124 26.1331 14.0411C25.9028 14.0747 25.6816 14.1149 25.4621 14.1564C25.2797 14.1909 25.0959 14.2246 24.9209 14.2646C24.7052 14.314 24.5003 14.3714 24.2959 14.4291C24.135 14.4745 23.9711 14.5177 23.8173 14.5684C23.6148 14.635 23.4249 14.7112 23.2344 14.7868C23.0957 14.8419 22.9524 14.8933 22.82 14.9532C22.6284 15.0398 22.451 15.1375 22.2724 15.2343C22.158 15.2962 22.037 15.3532 21.928 15.4192C21.7391 15.5336 21.5663 15.6609 21.3931 15.7878C21.3099 15.8489 21.2188 15.9036 21.1392 15.9674C20.8962 16.1614 20.6668 16.3721 20.4529 16.598C18.3766 18.8017 18.548 21.6803 18.6614 23.5849C18.6717 23.76 18.6816 23.9259 18.6891 24.082L18.6897 24.1128C18.6963 24.2529 18.701 24.3859 18.701 24.5068C18.701 24.8696 18.6749 25.2019 18.6436 25.528C18.6247 25.7085 18.6009 25.8846 18.5723 26.0564C18.5558 26.1598 18.5342 26.2574 18.514 26.3566C18.4294 26.7851 18.2989 27.2031 18.1245 27.6036C18.0598 27.741 17.988 27.875 17.9093 28.0049C17.8502 28.104 17.789 28.2004 17.7232 28.2914C17.6563 28.3863 17.5909 28.483 17.5172 28.5691C17.3642 28.7445 17.1938 28.904 17.0084 29.0448C16.9638 29.0791 16.9158 29.1094 16.8692 29.1415C16.6593 29.2878 16.4342 29.4112 16.198 29.5096L16.1881 29.5144C15.9195 29.6184 15.6414 29.6962 15.3578 29.7463C15.3038 29.7563 15.2486 29.7649 15.1933 29.7734C14.8809 29.8234 14.565 29.849 14.2484 29.8499C13.9837 29.8499 13.7348 29.8451 13.495 29.8366C13.3343 29.8308 13.1852 29.8203 13.0356 29.8099C12.9663 29.8053 12.8937 29.802 12.8266 29.7964C12.6599 29.7819 12.5033 29.7625 12.3505 29.7413C12.3084 29.7355 12.2649 29.7306 12.2239 29.7242C12.072 29.7006 11.929 29.672 11.7909 29.6403C11.7529 29.6317 11.7146 29.6232 11.6775 29.6138C11.5465 29.5809 11.4221 29.5434 11.3031 29.5022C11.2623 29.4879 11.2227 29.4726 11.1832 29.4573C11.0768 29.417 10.9726 29.3713 10.8708 29.3204C10.8244 29.2966 10.7811 29.2696 10.7366 29.2438C10.6514 29.1965 10.5687 29.1446 10.489 29.0886C10.427 29.0431 10.371 28.9905 10.3136 28.9399C10.2604 28.8933 10.2035 28.8507 10.1542 28.7997C10.0495 28.6899 9.95425 28.5716 9.8694 28.4459C9.84144 28.4048 9.81795 28.3571 9.79155 28.3137C9.73113 28.2164 9.67561 28.116 9.62541 28.0129C9.59389 27.9467 9.56572 27.8748 9.53691 27.8042C9.49976 27.714 9.46407 27.621 9.43089 27.523C9.39791 27.4244 9.3667 27.3223 9.33769 27.2156C9.31859 27.1467 9.30096 27.074 9.28332 27.0015C9.12188 26.2523 9.02232 25.4912 8.98569 24.7257L8.98662 24.7188L8.98621 24.7179C8.94697 24.1265 8.92276 23.4714 8.9119 22.7392C8.90846 22.4455 8.90491 22.1526 8.90491 21.8349C8.90543 21.4265 8.93518 21.0286 8.96596 20.6314ZM6.1351 15.8578C6.34225 15.6869 6.60367 15.5959 6.87219 15.6012H8.34711C8.18911 15.9739 8.05198 16.3589 7.92445 16.7494C7.88333 16.8742 7.84357 16.9992 7.80548 17.1258C7.69163 17.5086 7.58935 17.8976 7.5044 18.2957C7.46245 18.4894 7.42947 18.6865 7.39451 18.8834C7.37813 18.9772 7.35715 19.0688 7.34223 19.1634H6.85393C6.59658 19.1676 6.34591 19.0805 6.14689 18.9173C5.66068 18.5535 5.36524 17.9892 5.34332 17.3823C5.36451 16.7808 5.65525 16.2209 6.1351 15.8578ZM2.94775 25.0083C2.65898 25.0633 2.36083 24.9846 2.13677 24.7944C1.86553 24.5684 1.7355 24.2148 1.7954 23.8668C1.85541 23.5189 2.09638 23.2294 2.42762 23.1072L7.13205 21.3688C7.12683 21.5271 7.12422 21.6819 7.12422 21.835C7.12422 22.2507 7.1285 22.6409 7.13581 23.0149C7.13914 23.1958 7.14562 23.367 7.15094 23.5412C7.15501 23.6736 7.1573 23.815 7.16242 23.9422C6.96935 24.0744 6.77702 24.2091 6.58531 24.3466L2.94775 25.0083ZM4.90793 42.3009C4.45052 41.7543 4.03163 41.1765 3.65447 40.5717C3.61471 40.508 3.56952 40.4453 3.53101 40.3814C3.39409 40.1544 3.27376 39.9243 3.15292 39.6944C3.08759 39.57 3.01944 39.4461 2.95891 39.3209C2.85747 39.1117 2.76731 38.9005 2.67891 38.6891C2.61473 38.5347 2.55201 38.3803 2.49482 38.2248C2.42302 38.0306 2.35676 37.8353 2.29602 37.6392C2.23935 37.4555 2.18915 37.2706 2.14198 37.0852C2.0969 36.9092 2.05171 36.7333 2.0154 36.5559C1.96916 36.3286 1.93493 36.0992 1.90279 35.8695C1.88286 35.7275 1.85698 35.5865 1.84247 35.4437C1.80292 35.0646 1.78236 34.6836 1.78111 34.3025C1.78111 31.8675 2.11381 30.7768 4.19182 28.6984C5.16508 27.7282 6.2094 26.8319 7.31614 26.0172C7.33231 26.1479 7.35308 26.2687 7.37166 26.394C7.3775 26.4338 7.38324 26.4743 7.3893 26.5135C7.40192 26.5938 7.41267 26.6779 7.42634 26.7558C7.44022 26.8349 7.45755 26.9073 7.47257 26.984C7.49626 27.105 7.51881 27.2282 7.54531 27.3436L7.55022 27.3679C7.55544 27.3903 7.56138 27.4115 7.56671 27.4338C7.58716 27.5193 7.61127 27.5988 7.6335 27.6813C7.66741 27.8075 7.70123 27.9342 7.73921 28.0533C7.74683 28.0773 7.7533 28.1035 7.76113 28.1273C7.78294 28.1938 7.80934 28.2534 7.83251 28.3177C7.86904 28.4185 7.90567 28.5195 7.94564 28.6149C7.96672 28.6652 7.98842 28.7148 8.01044 28.7636C8.04029 28.8299 8.07097 28.8955 8.1027 28.9592C8.13035 29.0146 8.15926 29.0682 8.18827 29.1216C8.22668 29.1923 8.26759 29.26 8.3086 29.3273C8.32008 29.3462 8.33062 29.3662 8.34231 29.3849C8.38384 29.4509 8.42705 29.5155 8.47119 29.5784C8.51513 29.6408 8.56094 29.7012 8.60749 29.7604C8.65852 29.8253 8.71039 29.8896 8.76465 29.9506C8.79293 29.9823 8.81965 30.0161 8.84877 30.0468C8.88007 30.0799 8.91451 30.1096 8.94686 30.1416C9.01376 30.2074 9.08347 30.2704 9.15485 30.3313C9.20129 30.371 9.24627 30.4125 9.2947 30.4501C9.31285 30.4641 9.33185 30.4775 9.35021 30.4913C9.41878 30.5427 9.49162 30.5901 9.56405 30.6377C9.62739 30.6792 9.69043 30.7215 9.7568 30.7601C9.79959 30.7851 9.84248 30.8099 9.88662 30.8337C9.89894 30.8403 9.9125 30.8458 9.92492 30.8524C9.95654 30.869 9.99004 30.8838 10.0223 30.8999C10.0913 30.9342 10.1589 30.9698 10.2309 31.0014C10.3232 31.0419 10.4214 31.0777 10.5187 31.1139C10.543 31.1229 10.5662 31.133 10.5908 31.1418C10.6453 31.1612 10.698 31.1822 10.7541 31.2003C10.8668 31.2368 10.9869 31.2677 11.1062 31.2992C11.1803 31.3188 11.2507 31.3411 11.3273 31.3587C11.4765 31.3932 11.6344 31.4215 11.7936 31.4489C11.8481 31.4583 11.8984 31.4706 11.9541 31.4793C12.0146 31.4887 12.081 31.4943 12.1429 31.5027C12.1884 31.509 12.2361 31.5142 12.2823 31.52C12.3971 31.5341 12.5082 31.5505 12.6277 31.5618C12.7219 31.5707 12.8237 31.5752 12.9209 31.5823C12.9648 31.5855 13.009 31.5886 13.0535 31.5916C13.1104 31.5952 13.1652 31.6003 13.2231 31.6035C13.2563 31.6052 13.2866 31.6087 13.3201 31.6102C13.0098 35.3948 10.7408 41.973 4.90793 42.3009ZM12.4675 53.0038C12.4675 54.9711 10.8727 56.5659 8.90543 56.5659C6.93815 56.5659 5.34322 54.9711 5.34322 53.0038V45.3333C5.37296 45.361 5.40886 45.3921 5.43933 45.4202C5.58178 45.5523 5.73561 45.6893 5.89006 45.8273C5.94047 45.8719 5.99161 45.9168 6.04358 45.9623C8.06273 47.7202 10.21 49.3252 12.4675 50.7641V53.0038ZM35.7104 55.9433C34.0443 55.7951 32.4828 55.6754 31.1688 55.6754C25.247 55.6754 18.6154 52.5617 13.4658 49.2647C13.1971 49.0921 12.9298 48.9195 12.6704 48.7468C12.5271 48.6518 12.3882 48.557 12.2476 48.4619C10.5287 47.304 8.87861 46.047 7.3057 44.6975C7.26271 44.6599 7.21981 44.6223 7.17776 44.5853C6.97989 44.4117 6.79538 44.2461 6.62423 44.0885C6.55212 44.0217 6.49003 43.9605 6.42157 43.8957C12.5211 42.6535 14.8287 35.7312 15.109 31.5843C15.1934 31.5755 15.2717 31.5614 15.3534 31.5501C15.5243 31.5265 15.692 31.4984 15.8552 31.4636C15.9487 31.4436 16.0409 31.4229 16.1307 31.3996C16.2847 31.3598 16.4336 31.3131 16.5802 31.2629C16.654 31.2375 16.7303 31.2143 16.8013 31.1865C16.9816 31.1162 17.158 31.0365 17.3299 30.9476C17.3504 30.9369 17.3736 30.928 17.3939 30.9172C18.1167 30.534 18.7377 29.9838 19.205 29.3123C19.2386 29.3345 19.28 29.3491 19.3143 29.3707C19.6436 29.5821 19.9894 29.7667 20.3483 29.9229C20.3774 29.9355 20.4095 29.9448 20.4389 29.957C20.8099 30.1083 21.1905 30.2346 21.5783 30.3353C21.655 30.3556 21.7294 30.3785 21.8076 30.3973C22.2432 30.5006 22.6844 30.5785 23.1289 30.6309C23.2225 30.6422 23.3192 30.6503 23.4147 30.6598C23.9013 30.7082 24.403 30.7406 24.9352 30.7406C29.363 30.7406 31.3526 29.8501 32.2277 29.1681C36.3168 36.4678 37.8791 43.2697 35.7104 55.9433ZM45.4174 56.5659C44.7116 56.5659 44.0034 56.5488 43.2979 56.5211C43.0644 56.5119 42.8342 56.4962 42.6016 56.4847C42.1273 56.4612 41.6526 56.4381 41.1844 56.4065C40.9241 56.389 40.6704 56.368 40.413 56.3487C39.9652 56.3151 39.516 56.282 39.079 56.2448C38.8606 56.2262 38.6492 56.2072 38.4342 56.1882C38.1174 56.1601 37.8045 56.1321 37.4958 56.1041C39.7378 42.8724 37.9263 35.5823 33.592 27.9503C33.6738 27.9663 33.7505 27.9736 33.8304 27.9863C33.8985 27.9972 33.9668 28.0084 34.0336 28.017C34.2647 28.0489 34.4976 28.0661 34.7308 28.0687C35.0611 28.0667 35.3909 28.0409 35.7174 27.9915C35.8169 27.9772 35.91 27.9571 36.0065 27.939C36.2227 27.8985 36.4315 27.8519 36.6324 27.7955C36.7273 27.7688 36.8201 27.7427 36.9114 27.7131C37.118 27.6462 37.3131 27.5735 37.5005 27.4952C37.5606 27.4701 37.6243 27.4482 37.6823 27.4222C37.9195 27.3163 38.1392 27.2054 38.3404 27.0926C38.3916 27.0639 38.4332 27.0365 38.482 27.0078C38.6316 26.9198 38.7707 26.834 38.8966 26.7494C38.9532 26.7114 39.0018 26.6777 39.0535 26.641C39.1626 26.564 39.2587 26.4936 39.3451 26.4261C39.3795 26.3991 39.4123 26.3748 39.4431 26.35C39.4563 26.3393 39.4749 26.3258 39.4874 26.3155C39.4998 26.3174 39.5112 26.3168 39.5237 26.3189C39.5848 26.3289 39.6491 26.3467 39.7121 26.3619C39.7789 26.3778 39.8448 26.3917 39.9136 26.4133C39.9788 26.4338 40.0465 26.4612 40.1134 26.4866C40.184 26.5134 40.2541 26.5385 40.3267 26.5706C40.3955 26.6011 40.4665 26.638 40.537 26.6732C40.611 26.7101 40.6844 26.7457 40.7601 26.7878C40.8322 26.8278 40.9062 26.8738 40.9798 26.9184C41.0569 26.9652 41.1336 27.0111 41.2122 27.0627C41.2869 27.1117 41.3631 27.166 41.439 27.2194C41.5189 27.2757 41.5987 27.3313 41.6799 27.3921C41.757 27.4499 41.8353 27.5122 41.9135 27.574C41.9957 27.639 42.0779 27.7041 42.1612 27.7736C42.2404 27.8396 42.3205 27.9097 42.4005 27.9797C42.4845 28.053 42.5684 28.1266 42.6533 28.204C42.7345 28.2782 42.8163 28.356 42.8982 28.4339C42.9833 28.5149 43.0684 28.5963 43.1541 28.6812C43.237 28.7631 43.3201 28.8481 43.4034 28.9336C43.4891 29.0216 43.575 29.1103 43.6611 29.2019C43.7449 29.2911 43.8289 29.3827 43.9129 29.475C43.9997 29.5705 44.0867 29.667 44.1737 29.7657C44.2573 29.8605 44.3409 29.9576 44.4246 30.0556C44.5119 30.1579 44.5994 30.2616 44.6867 30.3668C44.7708 30.4682 44.8548 30.5712 44.9387 30.6757C45.0254 30.7834 45.112 30.8926 45.1985 31.003C45.2824 31.1104 45.3662 31.219 45.4499 31.3291C45.5364 31.4429 45.6228 31.5582 45.7089 31.6747C45.7914 31.7862 45.8735 31.8989 45.9553 32.0127C46.0422 32.1333 46.1286 32.2552 46.2147 32.3785C46.2952 32.4938 46.3755 32.6099 46.4554 32.727C46.5406 32.8519 46.6252 32.9782 46.7094 33.1057C46.7894 33.2265 46.869 33.3479 46.9482 33.4704C47.0312 33.5989 47.1133 33.7292 47.1952 33.8598C47.2733 33.9844 47.3511 34.1091 47.4282 34.2355C47.5092 34.3685 47.5896 34.5026 47.6691 34.6377C47.7446 34.7651 47.8196 34.8931 47.8942 35.0218C47.973 35.1586 48.0505 35.2968 48.1278 35.4351C48.2006 35.5654 48.2734 35.6957 48.3447 35.8274C48.4207 35.9675 48.495 36.1089 48.5693 36.2503C48.6387 36.3824 48.7082 36.5144 48.776 36.6475C48.8492 36.7915 48.9205 36.9365 48.9919 37.0816C49.0575 37.215 49.1233 37.3483 49.1871 37.4825C49.2564 37.628 49.3232 37.7746 49.3903 37.921C49.4524 38.0564 49.5148 38.1917 49.575 38.3278C49.6405 38.4759 49.7031 38.6246 49.766 38.7733C49.8235 38.9089 49.8815 39.0442 49.937 39.1803C49.9979 39.33 50.0557 39.4803 50.114 39.6305C50.1669 39.7668 50.2207 39.9027 50.2713 40.0392C50.3277 40.1908 50.3802 40.3427 50.4336 40.4944C50.4811 40.6293 50.5298 40.7641 50.5748 40.899C50.6258 41.0517 50.6727 41.2042 50.7205 41.3568C50.7628 41.4915 50.8067 41.6264 50.8464 41.7609C50.8916 41.9142 50.932 42.0669 50.9738 42.2198C51.0101 42.3525 51.0484 42.4856 51.082 42.618C51.1218 42.7744 51.1561 42.93 51.192 43.0857C51.2215 43.2138 51.2535 43.3423 51.2803 43.4698C51.3139 43.6296 51.3414 43.7878 51.3708 43.9466C51.3934 44.0689 51.4189 44.192 51.4389 44.3137C51.4665 44.4813 51.487 44.6472 51.5093 44.8134C51.5242 44.9244 51.5425 45.0361 51.5551 45.1464C51.5762 45.3326 51.5896 45.5164 51.6039 45.7005C51.6108 45.7887 51.6215 45.8782 51.6268 45.9659C51.6428 46.2366 51.6511 46.5045 51.6514 46.7696C51.6512 54.8996 49.1591 56.5659 45.4174 56.5659Z" fill="#1373CC"></path>
  <path d="M82.6467 1.06329C83.3323 1.74894 83.7107 2.66113 83.7107 3.63076C83.7107 4.60107 83.3323 5.51258 82.6467 6.19891L54.4004 34.4437C54.2065 34.6383 53.9181 34.7066 53.6574 34.6194C53.3959 34.533 53.2071 34.3057 53.1679 34.0333L52.1409 26.8437C52.1358 26.8095 52.1336 26.7754 52.1336 26.7412C52.1336 26.5502 52.2099 26.365 52.3465 26.2277L77.5118 1.06329C78.1974 0.377636 79.1089 -7.68427e-06 80.0792 -7.6727e-06C81.0496 -7.66113e-06 81.9611 0.377636 82.6467 1.06329ZM78.5388 2.09027L53.6306 26.9977L54.4012 32.3904L81.6197 5.17192C82.4419 4.34829 82.4434 2.91391 81.6197 2.09027C81.2087 1.67923 80.6618 1.45261 80.0792 1.45261C79.4967 1.45261 78.9498 1.67914 78.5388 2.09027Z" fill="#1373CC"></path>
  <path d="M82.6467 1.06329C83.3323 1.74894 83.7107 2.66113 83.7107 3.63076C83.7107 4.60107 83.3323 5.51258 82.6467 6.19891L54.4004 34.4437C54.2065 34.6383 53.9181 34.7066 53.6574 34.6194C53.3959 34.533 53.2071 34.3057 53.1679 34.0333L52.1409 26.8437C52.1358 26.8095 52.1336 26.7754 52.1336 26.7412C52.1336 26.5502 52.2099 26.365 52.3465 26.2277L77.5118 1.06329C78.1974 0.377636 79.1089 -7.68427e-06 80.0792 -7.6727e-06C81.0496 -7.66113e-06 81.9611 0.377636 82.6467 1.06329ZM78.5388 2.09027L53.6306 26.9977L54.4012 32.3904L81.6197 5.17192C82.4419 4.34829 82.4434 2.91391 81.6197 2.09027C81.2087 1.67923 80.6618 1.45261 80.0792 1.45261C79.4967 1.45261 78.9498 1.67914 78.5388 2.09027Z" fill="url(#paint0_linear_589_1222)"></path>
  <path d="M80.0793 3.63121C80.3632 3.91519 80.3632 4.37422 80.0793 4.6582L73.4031 11.3343C73.1192 11.6183 72.6601 11.6183 72.3762 11.3343C72.2345 11.1927 72.1633 11.0068 72.1633 10.8208C72.1633 10.6349 72.2338 10.449 72.3762 10.3073L79.0523 3.63121C79.3362 3.34723 79.7953 3.34723 80.0793 3.63121Z" fill="#1373CC"></path>
  <path d="M80.0793 3.63121C80.3632 3.91519 80.3632 4.37422 80.0793 4.6582L73.4031 11.3343C73.1192 11.6183 72.6601 11.6183 72.3762 11.3343C72.2345 11.1927 72.1633 11.0068 72.1633 10.8208C72.1633 10.6349 72.2338 10.449 72.3762 10.3073L79.0523 3.63121C79.3362 3.34723 79.7953 3.34723 80.0793 3.63121Z" fill="url(#paint1_linear_589_1222)"></path>
  <path d="M58.8245 20.4364C59.1019 20.5693 59.2639 20.8649 59.232 21.1707C59.1078 22.3015 59.3162 23.1484 59.8551 23.6916C60.803 24.6467 62.5221 24.479 62.5373 24.4775C62.8438 24.4433 63.1387 24.6068 63.2723 24.885C63.4067 25.1632 63.3507 25.495 63.1314 25.713L54.4006 34.4437C54.2067 34.6383 53.9183 34.7066 53.6576 34.6194C53.3961 34.533 53.2072 34.3057 53.168 34.0333L52.141 26.8437C52.1359 26.8095 52.1338 26.7754 52.1338 26.7412C52.1338 26.5502 52.2101 26.365 52.3466 26.2271L57.9957 20.5773C58.2137 20.3594 58.5463 20.3027 58.8245 20.4364ZM53.6307 26.9977L54.4014 32.3904L60.9743 25.816C60.267 25.6679 59.4666 25.3577 58.8333 24.7244C58.3191 24.2102 57.9857 23.5638 57.8361 22.7925L53.6307 26.9977Z" fill="#1373CC"></path>
  <path d="M58.8245 20.4364C59.1019 20.5693 59.2639 20.8649 59.232 21.1707C59.1078 22.3015 59.3162 23.1484 59.8551 23.6916C60.803 24.6467 62.5221 24.479 62.5373 24.4775C62.8438 24.4433 63.1387 24.6068 63.2723 24.885C63.4067 25.1632 63.3507 25.495 63.1314 25.713L54.4006 34.4437C54.2067 34.6383 53.9183 34.7066 53.6576 34.6194C53.3961 34.533 53.2072 34.3057 53.168 34.0333L52.141 26.8437C52.1359 26.8095 52.1338 26.7754 52.1338 26.7412C52.1338 26.5502 52.2101 26.365 52.3466 26.2271L57.9957 20.5773C58.2137 20.3594 58.5463 20.3027 58.8245 20.4364ZM53.6307 26.9977L54.4014 32.3904L60.9743 25.816C60.267 25.6679 59.4666 25.3577 58.8333 24.7244C58.3191 24.2102 57.9857 23.5638 57.8361 22.7925L53.6307 26.9977Z" fill="url(#paint2_linear_589_1222)"></path>
  <rect x="49.6094" y="31.5825" width="3.56215" height="5.34323" transform="rotate(45 49.6094 31.5825)" fill="#F3F6FB"></rect>
  <path d="M53.2121 26.9497C53.4765 27.0355 53.6683 27.2635 53.7081 27.5381L54.3502 32.0317C54.3814 32.2503 54.311 32.4711 54.1606 32.6316L51.5416 35.422C50.7637 36.1984 50.67 36.6045 50.6831 36.7773C50.7521 37.6975 50.4427 38.5741 49.8318 39.185C49.208 39.8081 48.4149 40.2598 47.5883 40.4756L41.038 42.74C40.741 42.8425 40.4119 42.7423 40.2216 42.4924C40.1236 42.3631 40.0742 42.2084 40.0742 42.0537C40.0742 41.9092 40.117 41.7646 40.2035 41.6419L42.6561 38.0983C44.121 35.9833 45.7858 33.9882 47.5949 32.179L52.4668 27.1364C52.6587 26.9367 52.9477 26.864 53.2121 26.9497ZM48.63 33.1959C46.8731 34.9527 45.265 36.8796 43.8503 38.9234L42.6599 40.6425L47.1651 39.0868C47.7955 38.9205 48.3627 38.5995 48.8043 38.1571C49.0883 37.8739 49.2401 37.4809 49.2401 37.0394C49.2401 36.9899 49.2387 36.9391 49.2343 36.8883C49.1537 35.8729 49.9272 34.9803 50.4973 34.4109L52.8621 31.8914L52.4793 29.2121L48.63 33.1959Z" fill="#1373CC"></path>
  <path d="M53.2121 26.9497C53.4765 27.0355 53.6683 27.2635 53.7081 27.5381L54.3502 32.0317C54.3814 32.2503 54.311 32.4711 54.1606 32.6316L51.5416 35.422C50.7637 36.1984 50.67 36.6045 50.6831 36.7773C50.7521 37.6975 50.4427 38.5741 49.8318 39.185C49.208 39.8081 48.4149 40.2598 47.5883 40.4756L41.038 42.74C40.741 42.8425 40.4119 42.7423 40.2216 42.4924C40.1236 42.3631 40.0742 42.2084 40.0742 42.0537C40.0742 41.9092 40.117 41.7646 40.2035 41.6419L42.6561 38.0983C44.121 35.9833 45.7858 33.9882 47.5949 32.179L52.4668 27.1364C52.6587 26.9367 52.9477 26.864 53.2121 26.9497ZM48.63 33.1959C46.8731 34.9527 45.265 36.8796 43.8503 38.9234L42.6599 40.6425L47.1651 39.0868C47.7955 38.9205 48.3627 38.5995 48.8043 38.1571C49.0883 37.8739 49.2401 37.4809 49.2401 37.0394C49.2401 36.9899 49.2387 36.9391 49.2343 36.8883C49.1537 35.8729 49.9272 34.9803 50.4973 34.4109L52.8621 31.8914L52.4793 29.2121L48.63 33.1959Z" fill="url(#paint3_linear_589_1222)"></path>
  <defs>
    <linearGradient id="paint0_linear_589_1222" x1="83.7107" y1="17.3284" x2="52.1336" y2="17.3284" gradientUnits="userSpaceOnUse">
      <stop stop-color="#14E4BF"></stop>
      <stop offset="1" stop-color="#00AA8B"></stop>
    </linearGradient>
    <linearGradient id="paint1_linear_589_1222" x1="80.2922" y1="7.48276" x2="72.1633" y2="7.48276" gradientUnits="userSpaceOnUse">
      <stop stop-color="#14E4BF"></stop>
      <stop offset="1" stop-color="#00AA8B"></stop>
    </linearGradient>
    <linearGradient id="paint2_linear_589_1222" x1="63.3447" y1="27.5107" x2="52.1338" y2="27.5107" gradientUnits="userSpaceOnUse">
      <stop stop-color="#14E4BF"></stop>
      <stop offset="1" stop-color="#00AA8B"></stop>
    </linearGradient>
    <linearGradient id="paint3_linear_589_1222" x1="54.3574" y1="34.847" x2="40.0742" y2="34.847" gradientUnits="userSpaceOnUse">
      <stop stop-color="#14E4BF"></stop>
      <stop offset="1" stop-color="#00AA8B"></stop>
    </linearGradient>
  </defs>
</svg>
