<svg width="55" height="55" viewBox="0 0 55 55" fill="none" xmlns="http://www.w3.org/2000/svg">
<g clip-path="url(#clip0_589_1334)">
<path d="M54.0833 33.2548V3.66667C54.0833 1.64162 52.4417 0 50.4167 0H4.58333C2.55829 0 0.916667 1.64162 0.916667 3.66667V33.2548C0.351311 33.5797 0.00196625 34.1813 0 34.8333V49.5C0.00303177 52.5363 2.46369 54.997 5.5 55H49.5C52.5363 54.997 54.997 52.5363 55 49.5V34.8333C54.998 34.1813 54.6487 33.5797 54.0833 33.2548ZM4.58333 1.83333H50.4167C51.4292 1.83333 52.25 2.65414 52.25 3.66667V33H50.4167V26.5833C50.4147 25.9313 50.0654 25.3297 49.5 25.0048V22C49.498 21.2948 49.0917 20.6532 48.455 20.35L47.7959 17.0555C47.6239 16.1993 46.8717 15.5832 45.9983 15.5833H45.8333V9.16667C45.8333 8.15414 45.0125 7.33333 44 7.33333H28.4167C27.4041 7.33333 26.5833 8.15414 26.5833 9.16667V11.9167H16.5C15.9937 11.9167 15.5833 12.3271 15.5833 12.8333C15.5833 13.3396 15.9937 13.75 16.5 13.75H17.4167V20.1905C16.877 19.7738 16.2504 19.484 15.5833 19.3426V17.4167C15.5833 16.4041 14.7625 15.5833 13.75 15.5833H10.0833C9.07081 15.5833 8.25 16.4041 8.25 17.4167V19.3417C6.11745 19.7802 4.58608 21.6562 4.58333 23.8333V33H2.75V3.66667C2.75 2.65414 3.57081 1.83333 4.58333 1.83333ZM13.75 19.25H10.0833V17.4167H13.75V19.25ZM9.16667 21.0833H14.6667C16.1854 21.0833 17.4167 22.3146 17.4167 23.8333V26.5833H6.41667V23.8333C6.41667 22.3146 7.64788 21.0833 9.16667 21.0833ZM6.41667 28.4167H17.4167V33H6.41667V28.4167ZM19.25 24.75V13.75H28.4167V16.5H25.6667C24.6541 16.5 23.8333 17.3208 23.8333 18.3333V21.0833C23.8333 22.0959 24.6541 22.9167 25.6667 22.9167V23.8333C25.6667 24.3396 25.2563 24.75 24.75 24.75C22.725 24.75 21.0833 26.3916 21.0833 28.4167V33H19.25V24.75ZM33.9167 26.5833C34.9292 26.5833 35.75 27.4041 35.75 28.4167V29.3333H22.9167V28.4167C22.9167 27.4041 23.7375 26.5833 24.75 26.5833C26.2688 26.5833 27.5 25.3521 27.5 23.8333V22.9167H31.1667V23.8333C31.1667 25.3521 32.3979 26.5833 33.9167 26.5833ZM25.6667 21.0833V18.3333H33V21.0833H25.6667ZM22.9167 31.1667H35.75V33H22.9167V31.1667ZM33.9167 24.75C33.4104 24.75 33 24.3396 33 23.8333V22.9167C34.0125 22.9167 34.8333 22.0959 34.8333 21.0833V18.3333C34.8333 17.3208 34.0125 16.5 33 16.5H30.25V13.75H31.1667C31.6729 13.75 32.0833 13.3396 32.0833 12.8333C32.0833 12.3271 31.6729 11.9167 31.1667 11.9167H28.4167V9.16667H44V15.5833H43.835C42.9614 15.5833 42.2091 16.1998 42.0374 17.0564L41.3783 20.3564C40.7437 20.6587 40.3378 21.2971 40.3333 22V25.0048C39.768 25.3297 39.4186 25.9313 39.4167 26.5833V33H37.5833V28.4167C37.5833 26.3916 35.9417 24.75 33.9167 24.75ZM41.25 26.5833H48.5833V29.3333H41.25V26.5833ZM42.1667 24.75V22H47.6667V24.75H42.1667ZM43.285 20.1667L43.835 17.4167H45.9983L46.5483 20.1667H43.285ZM41.25 31.1667H48.5833V33H41.25V31.1667ZM53.1667 49.5C53.1667 51.525 51.525 53.1667 49.5 53.1667H5.5C3.47496 53.1667 1.83333 51.525 1.83333 49.5V34.8333H53.1667V49.5Z" fill="#074584"/>
<path d="M22.9167 47.6667H24.75V49.5C24.75 50.5125 25.5709 51.3333 26.5834 51.3333H28.4167C29.4292 51.3333 30.25 50.5125 30.25 49.5V47.6667H32.0834C33.0959 47.6667 33.9167 46.8459 33.9167 45.8333V44C33.9167 42.9875 33.0959 42.1667 32.0834 42.1667H30.25V40.3333C30.25 39.3208 29.4292 38.5 28.4167 38.5H26.5834C25.5709 38.5 24.75 39.3208 24.75 40.3333V42.1667H22.9167C21.9042 42.1667 21.0834 42.9875 21.0834 44V45.8333C21.0834 46.8459 21.9042 47.6667 22.9167 47.6667ZM22.9167 44H25.6667C26.173 44 26.5834 43.5896 26.5834 43.0833V40.3333H28.4167V43.0833C28.4167 43.5896 28.8271 44 29.3334 44H32.0834V45.8333H29.3334C28.8271 45.8333 28.4167 46.2437 28.4167 46.75V49.5H26.5834V46.75C26.5834 46.2437 26.173 45.8333 25.6667 45.8333H22.9167V44Z" fill="#FF7152"/>
</g>
<defs>
<clipPath id="clip0_589_1334">
<rect width="55" height="55" fill="white"/>
</clipPath>
</defs>
</svg>
